<svg width="18" height="20" viewBox="0 0 18 20" fill="none" xmlns="http://www.w3.org/2000/svg">
<path d="M9.00346 12.1565C8.36838 12.1565 7.77366 11.9102 7.32337 11.46C6.87521 11.0098 6.6267 10.4152 6.6267 9.78027C6.6267 9.14534 6.87521 8.55075 7.32337 8.10056C7.77366 7.6525 8.36838 7.40405 9.00346 7.40405C9.63853 7.40405 10.2333 7.6525 10.6835 8.10056C11.1317 8.55075 11.3802 9.14534 11.3802 9.78027C11.3802 10.4152 11.1317 11.0098 10.6835 11.46C10.4636 11.6816 10.2018 11.8572 9.91341 11.9768C9.62499 12.0964 9.31568 12.1575 9.00346 12.1565ZM17.7607 7.15559L16.3716 8.34264C16.4375 8.74611 16.4714 9.15808 16.4714 9.56792C16.4714 9.97776 16.4375 10.3918 16.3716 10.7932L17.7607 11.9802C17.8656 12.0701 17.9408 12.1897 17.976 12.3232C18.0113 12.4567 18.0051 12.5978 17.9582 12.7277L17.9391 12.7829C17.5568 13.8517 16.984 14.8424 16.2484 15.707L16.2102 15.7516C16.1209 15.8566 16.0018 15.9321 15.8687 15.9681C15.7356 16.0041 15.5948 15.999 15.4647 15.9534L13.74 15.3397C13.1028 15.8621 12.3934 16.274 11.6245 16.5607L11.291 18.3636C11.2658 18.4994 11.1999 18.6243 11.1021 18.7218C11.0042 18.8193 10.879 18.8847 10.743 18.9093L10.6857 18.9199C9.58118 19.1195 8.41723 19.1195 7.31275 18.9199L7.2554 18.9093C7.11946 18.8847 6.99423 18.8193 6.89635 18.7218C6.79847 18.6243 6.73257 18.4994 6.70741 18.3636L6.37182 16.5522C5.61021 16.2632 4.90072 15.8523 4.27118 15.3354L2.53375 15.9534C2.40368 15.9994 2.2627 16.0047 2.12954 15.9687C1.99637 15.9326 1.87733 15.8569 1.78822 15.7516L1.74999 15.707C1.01571 14.8415 0.443029 13.8511 0.0592832 12.7829L0.0401672 12.7277C-0.0554129 12.4623 0.0231752 12.165 0.237699 11.9802L1.64379 10.7805C1.57794 10.3812 1.54608 9.97351 1.54608 9.57004C1.54608 9.16233 1.57794 8.75461 1.64379 8.35963L0.241947 7.15984C0.137013 7.07003 0.0619094 6.95041 0.0266245 6.81689C-0.00866046 6.68337 -0.00245526 6.54227 0.0444151 6.41236L0.0635312 6.35715C0.447976 5.28901 1.01508 4.30157 1.75424 3.43305L1.79247 3.38846C1.88179 3.28345 2.00084 3.20797 2.13393 3.17196C2.26701 3.13595 2.40789 3.14109 2.53799 3.18672L4.27543 3.80467C4.90838 3.2844 5.61355 2.87244 6.37606 2.58789L6.71166 0.776518C6.73682 0.640703 6.80271 0.515755 6.90059 0.418274C6.99848 0.320795 7.12371 0.255398 7.25965 0.230772L7.317 0.220154C8.43234 0.0194702 9.57457 0.0194702 10.6899 0.220154L10.7473 0.230772C10.8832 0.255398 11.0084 0.320795 11.1063 0.418274C11.2042 0.515755 11.2701 0.640703 11.2953 0.776518L11.6287 2.57939C12.3976 2.86819 13.107 3.27803 13.7442 3.80042L15.4689 3.18672C15.599 3.14073 15.74 3.1354 15.8731 3.17143C16.0063 3.20747 16.1253 3.28316 16.2144 3.38846L16.2527 3.43305C16.9918 4.30582 17.5589 5.28901 17.9434 6.35715L17.9625 6.41236C18.0538 6.67568 17.9752 6.97085 17.7607 7.15559ZM9.00346 6.04711C6.94105 6.04711 5.26946 7.71833 5.26946 9.78027C5.26946 11.8422 6.94105 13.5134 9.00346 13.5134C11.0659 13.5134 12.7374 11.8422 12.7374 9.78027C12.7374 7.71833 11.0659 6.04711 9.00346 6.04711Z" fill="white"/>
</svg>
