<svg width="21" height="25" viewBox="0 0 21 25" fill="none" xmlns="http://www.w3.org/2000/svg">
<path d="M17.1334 13.8249C16.9746 11.6601 17.938 10.0706 19.7853 8.95758C19.2604 8.21557 18.6044 7.66077 17.8102 7.26254C17.1438 6.92897 16.429 6.74858 15.6866 6.64647C15.072 6.56137 14.4608 6.5852 13.8531 6.70433C12.9553 6.87792 12.1232 7.24211 11.2599 7.51781C10.8214 7.65737 10.3967 7.75948 9.93399 7.58929C9.33663 7.36805 8.73581 7.15702 8.12463 6.98343C7.63086 6.84388 7.12328 6.69412 6.61224 6.66689C5.43823 6.60222 4.35055 6.93238 3.35264 7.54504C2.08885 8.32109 1.24978 9.44091 0.735292 10.8024C0.293313 11.9801 0.19663 13.2088 0.272595 14.4512C0.345107 15.6323 0.597174 16.7827 0.983906 17.9059C1.41207 19.1449 1.95419 20.3294 2.71729 21.4083C3.34919 22.3069 3.99834 23.1953 4.86849 23.8965C5.61433 24.4955 6.44649 24.7814 7.40297 24.5261C7.87947 24.4002 8.34908 24.2436 8.80832 24.07C9.88565 23.665 10.9802 23.522 12.099 23.842C12.648 23.9986 13.1832 24.2164 13.7288 24.39C14.2985 24.5704 14.8786 24.6555 15.476 24.5261C16.284 24.3525 16.9055 23.8794 17.4373 23.2974C18.3592 22.2933 19.1534 21.1973 19.7404 19.9652C19.9959 19.4308 20.2169 18.876 20.4517 18.3382C18.5111 17.392 17.2888 15.9828 17.1334 13.8249Z" fill="white"/>
<path d="M10.4133 6.57839C10.4582 6.5818 10.5066 6.5852 10.5515 6.5852C11.3456 6.62604 12.0639 6.39119 12.713 5.96232C14.1011 5.04672 15.0438 3.82479 15.3269 2.17059C15.3891 1.79618 15.3787 1.40816 15.4029 0.975891C13.7524 1.19032 12.4333 1.86426 11.4561 3.11682C10.6689 4.12772 10.2442 5.26116 10.3546 6.55116C10.3926 6.56818 10.403 6.57499 10.4133 6.57839Z" fill="white"/>
</svg>
