<svg width="20" height="23" viewBox="0 0 20 23" fill="none" xmlns="http://www.w3.org/2000/svg">
<path d="M17.3522 12.3569C17.6475 12.3569 17.9219 12.3541 18.1962 12.3577C18.4627 12.3613 18.7296 12.3713 18.9961 12.3796C19.1492 12.3844 19.2687 12.3165 19.371 12.2059C19.7041 11.8456 19.8899 11.4116 19.9626 10.9255C20.0647 10.2441 19.9634 9.60109 19.5895 9.01798C19.5213 8.91149 19.4392 8.81143 19.3512 8.72115C16.7601 6.05662 14.1692 3.39261 11.5745 0.731951C10.8118 -0.0499925 9.58174 -0.152365 8.70626 0.493252C8.51147 0.63678 8.34242 0.819662 8.17163 0.994828C5.67874 3.55389 3.19411 6.1217 0.692474 8.67176C-0.164993 9.54604 -0.223257 11.1642 0.501678 12.0832C0.66622 12.2918 0.850266 12.3991 1.12459 12.3778C1.5772 12.3428 2.03207 12.3405 2.48618 12.3273C2.64972 12.3227 2.65022 12.3268 2.65022 12.4925C2.65022 14.9363 2.65022 17.3801 2.65022 19.824C2.65022 20.6303 2.9683 21.2667 3.62022 21.7176C3.96856 21.9584 4.35916 22.0682 4.77826 22.0687C5.63673 22.0695 6.49545 22.069 7.35392 22.069C7.76177 22.069 7.95307 21.8743 7.95307 21.4578C7.95332 19.9058 7.95432 18.3537 7.95232 16.8017C7.95182 16.4403 8.05485 16.1272 8.31942 15.88C8.52597 15.6871 8.77153 15.5896 9.04835 15.5881C9.68176 15.5842 10.3154 15.5806 10.9488 15.5889C11.527 15.5966 11.9776 16.0362 12.0306 16.627C12.0376 16.7037 12.0384 16.7811 12.0384 16.8582C12.0389 18.4018 12.0384 19.9451 12.0391 21.4887C12.0391 21.7917 12.1784 21.9908 12.4325 22.053C12.4845 22.0656 12.5397 22.0682 12.5935 22.0682C13.4687 22.069 14.3439 22.071 15.2192 22.0682C16.4137 22.0643 17.3485 21.1106 17.3505 19.8818C17.3547 17.4251 17.352 14.9685 17.352 12.5118C17.352 12.457 17.352 12.4022 17.352 12.3562L17.3522 12.3569Z" fill="white"/>
</svg>
