<svg width="20" height="19" viewBox="0 0 20 19" fill="none" xmlns="http://www.w3.org/2000/svg">
<path d="M9.5304 18.9647C12.5282 18.9647 15.5263 18.9647 18.5241 18.9647C18.5599 18.9647 18.5957 18.9642 18.6315 18.9647C18.8099 18.9674 18.9504 18.8984 19.0304 18.7311C19.1134 18.5571 19.0695 18.4016 18.9504 18.2602C18.3809 17.5838 17.8133 16.9057 17.2412 16.2321C17.1685 16.1465 17.1389 16.0622 17.1391 15.9494C17.142 13.7057 17.142 11.4618 17.141 9.21816C17.1405 7.62631 16.7204 6.15888 15.8333 4.84749C14.602 3.02694 12.9088 1.92187 10.7672 1.53837C10.6577 1.51868 10.5475 1.50167 10.437 1.49146C10.3633 1.48466 10.332 1.4572 10.3347 1.37845C10.338 1.28173 10.3368 1.18354 10.3258 1.08755C10.2784 0.670746 9.9243 0.363798 9.51012 0.374734C9.10047 0.38567 8.76168 0.719839 8.73806 1.13785C8.73377 1.21465 8.73138 1.29193 8.73663 1.36849C8.74212 1.44869 8.71611 1.4815 8.63332 1.49171C7.08467 1.68127 5.71472 2.29395 4.54589 3.34263C3.01608 4.71528 2.14883 6.44202 1.96202 8.51483C1.93816 8.78046 1.93148 9.04853 1.93124 9.31562C1.92886 11.5148 1.92885 13.714 1.93243 15.9132C1.93243 16.0473 1.89879 16.1484 1.81147 16.2505C1.25366 16.9048 0.701099 17.5641 0.149731 18.2242C0.0943775 18.2905 0.0404568 18.3683 0.0165997 18.4502C-0.0554543 18.6979 0.115374 18.938 0.369703 18.9625C0.416945 18.9671 0.465137 18.9645 0.512856 18.9645C3.51878 18.9645 6.52471 18.9645 9.5304 18.9645V18.9647Z" fill="white"/>
</svg>
