<svg width="18" height="19" viewBox="0 0 18 19" fill="none" xmlns="http://www.w3.org/2000/svg">
<path d="M16.2 5.46964H1.8V3.66964H16.2V5.46964ZM14.4 0.0696411H3.6V1.86964H14.4V0.0696411ZM18 9.06964V16.2696C18 16.747 17.8104 17.2049 17.4728 17.5424C17.1352 17.88 16.6774 18.0696 16.2 18.0696H1.8C1.32305 18.0682 0.866039 17.8781 0.528781 17.5409C0.191524 17.2036 0.00142445 16.7466 0 16.2696V9.06964C0.00142445 8.59269 0.191524 8.13568 0.528781 7.79842C0.866039 7.46116 1.32305 7.27107 1.8 7.26964H16.2C16.677 7.27107 17.134 7.46116 17.4712 7.79842C17.8085 8.13568 17.9986 8.59269 18 9.06964ZM10.7343 13.6074L12.825 11.82L10.0719 11.5896L9 9.06964L7.9281 11.5896L5.175 11.82L7.2657 13.6074L6.6357 16.2696L9 14.8548L11.3643 16.2696L10.7343 13.6074Z" fill="white"/>
</svg>
