<svg width="162" height="162" viewBox="0 0 162 162" fill="none" xmlns="http://www.w3.org/2000/svg">
<path d="M118.197 82.6525C117.767 84.1666 116.808 84.6467 115.42 84.6467C92.4732 84.6098 69.4937 84.6098 46.5473 84.6467C45.1586 84.6467 44.1997 84.2036 43.803 82.6525C43.803 81.0646 43.803 79.4397 43.803 77.8517C44.2328 76.3376 45.1917 75.8945 46.5804 75.8945C69.5268 75.9314 92.4732 75.9314 115.42 75.8945C116.808 75.8945 117.767 76.3376 118.197 77.8517C118.197 79.4397 118.197 81.0646 118.197 82.6525Z" fill="white"/>
<path d="M79.0145 119.656C77.7528 119.218 77.3527 118.24 77.3527 116.824C77.3835 93.4276 77.3835 69.9975 77.3527 46.6011C77.3527 45.1852 77.722 44.2075 79.0145 43.803C80.3378 43.803 81.6919 43.803 83.0152 43.803C84.2769 44.2412 84.6462 45.2189 84.6462 46.6348C84.6155 70.0312 84.6155 93.4276 84.6462 116.824C84.6462 118.24 84.2769 119.218 83.0152 119.656C81.6919 119.656 80.3378 119.656 79.0145 119.656Z" fill="white"/>
<path d="M0.0415039 107.986C4.78339 107.986 9.59713 107.986 14.8419 107.986C14.8419 111.512 14.8419 114.823 14.8419 118.133C14.8419 122.307 14.7701 126.481 14.8419 130.726C15.0575 140.585 21.7392 147.278 31.6541 147.422C37.0426 147.494 42.3593 147.422 48.1789 147.422C48.1789 152.459 48.1789 157.209 48.1789 161.958C41.2097 161.958 34.3124 161.958 27.3433 161.958C26.6967 161.742 26.05 161.455 25.4034 161.311C18.0032 159.871 11.8962 156.273 7.15434 150.372C2.84353 145.119 1.04736 138.93 0.113351 132.453C0.0415039 124.322 0.0415039 116.118 0.0415039 107.986Z" fill="white"/>
<path d="M48.1789 0.041748C48.1789 4.78255 48.1789 9.52335 48.1789 14.7747C42.503 14.7747 37.0426 14.7747 31.6541 14.7747C27.2714 14.7747 23.4636 16.0875 20.1586 19.0779C16.4944 22.5058 14.8419 26.6632 14.9138 31.6957C14.9856 38.4787 14.9138 45.2617 14.9138 52.4823C9.74082 52.5552 4.92709 52.5552 0.0415039 52.5552C0.0415039 45.0429 0.0415039 37.4576 0.0415039 29.9453C0.257044 28.9971 0.544432 28.1219 0.616278 27.1737C1.76583 18.1297 5.93294 10.7632 13.405 5.94951C17.5721 3.25091 22.6732 1.93807 27.3433 0.041748C34.3124 0.041748 41.2097 0.041748 48.1789 0.041748Z" fill="white"/>
<path d="M119.656 161.958C119.656 157.281 119.656 152.675 119.656 147.422C123.026 147.422 126.18 147.422 129.335 147.422C140.52 147.35 147.117 140.801 147.188 129.575C147.26 122.738 147.26 115.902 147.26 109.137C147.26 108.922 147.403 108.706 147.618 107.986C152.279 107.986 157.154 107.986 161.958 107.986C161.958 115.902 161.958 123.818 161.958 131.734C161.743 132.525 161.528 133.317 161.385 134.109C160.022 145.982 153.856 154.402 143.03 159.224C140.377 160.447 137.437 161.023 134.713 161.886C129.694 161.958 124.675 161.958 119.656 161.958Z" fill="white"/>
<path d="M161.887 52.5552C157.154 52.5552 152.351 52.5552 147.117 52.5552C147.117 46.2098 147.188 40.0832 147.117 33.9567C147.117 31.5498 147.045 29.07 146.471 26.7361C144.464 19.4425 138.298 14.9935 130.339 14.8476C126.897 14.7747 123.456 14.8476 119.656 14.8476C119.656 9.66919 119.656 4.85545 119.656 0.0417175C124.675 0.0417175 129.694 0.0417175 134.713 0.0417175C135.286 0.260524 135.788 0.552265 136.362 0.625201C145.539 2.30271 152.852 7.11645 157.226 15.3581C159.664 19.9531 160.453 25.4962 161.958 30.6746C161.887 37.9681 161.887 45.2617 161.887 52.5552Z" fill="white"/>
</svg>
