<svg width="231" height="231" viewBox="0 0 231 231" fill="none" xmlns="http://www.w3.org/2000/svg">
<path d="M0.2146 153.829C6.95681 153.829 13.8012 153.829 21.2585 153.829C21.2585 158.843 21.2585 163.55 21.2585 168.256C21.2585 174.191 21.1563 180.126 21.2585 186.162C21.5649 200.18 31.0653 209.696 45.1627 209.901C52.8243 210.003 60.3838 209.901 68.6583 209.901C68.6583 217.063 68.6583 223.816 68.6583 230.569C58.7493 230.569 48.9424 230.569 39.0334 230.569C38.114 230.262 37.1946 229.853 36.2752 229.648C25.7533 227.602 17.0701 222.486 10.3279 214.096C4.19863 206.626 1.64477 197.827 0.316754 188.618C0.2146 177.056 0.2146 165.392 0.2146 153.829Z" fill="white"/>
<path d="M68.6583 0.34967C68.6583 7.09034 68.6583 13.831 68.6583 21.2976C60.5881 21.2976 52.8243 21.2976 45.1627 21.2976C38.9313 21.2976 33.5171 23.1642 28.8179 27.416C23.608 32.2901 21.2585 38.2011 21.3606 45.3566C21.4628 55.0009 21.3606 64.6453 21.3606 74.9118C14.0055 75.0155 7.16112 75.0155 0.2146 75.0155C0.2146 64.3341 0.2146 53.5491 0.2146 42.8677C0.521064 41.5196 0.929683 40.2752 1.03184 38.927C2.66631 26.0679 8.59129 15.5939 19.2154 8.74958C25.1404 4.91258 32.3933 3.04594 39.0334 0.34967C48.9424 0.34967 58.7493 0.34967 68.6583 0.34967Z" fill="white"/>
<path d="M170.287 230.569C170.287 223.918 170.287 217.37 170.287 209.901C175.078 209.901 179.564 209.901 184.05 209.901C199.953 209.798 209.332 200.487 209.434 184.525C209.536 174.805 209.536 165.085 209.536 155.467C209.536 155.16 209.74 154.853 210.046 153.829C216.672 153.829 223.604 153.829 230.435 153.829C230.435 165.085 230.435 176.34 230.435 187.595C230.129 188.72 229.823 189.846 229.619 190.971C227.682 207.854 218.915 219.826 203.521 226.681C199.749 228.421 195.569 229.239 191.695 230.467C184.559 230.569 177.423 230.569 170.287 230.569Z" fill="white"/>
<path d="M230.333 75.0155C223.604 75.0155 216.774 75.0155 209.332 75.0155C209.332 65.9934 209.434 57.2824 209.332 48.5713C209.332 45.1492 209.23 41.6233 208.414 38.3048C205.56 27.9345 196.793 21.6087 185.477 21.4013C180.583 21.2976 175.69 21.4013 170.287 21.4013C170.287 14.0384 170.287 7.19402 170.287 0.349655C177.423 0.349655 184.559 0.349655 191.695 0.349655C192.511 0.660763 193.225 1.07557 194.04 1.17928C207.089 3.56443 217.488 10.4088 223.706 22.1272C227.172 28.6605 228.294 36.5418 230.435 43.9047C230.333 54.275 230.333 64.6452 230.333 75.0155Z" fill="white"/>
</svg>
