<svg width="20" height="23" viewBox="0 0 20 23" fill="none" xmlns="http://www.w3.org/2000/svg">
<path d="M9.53052 18.9647C12.5283 18.9647 15.5264 18.9647 18.5242 18.9647C18.56 18.9647 18.5958 18.9642 18.6316 18.9647C18.81 18.9674 18.9506 18.8984 19.0305 18.7311C19.1135 18.5571 19.0696 18.4016 18.9506 18.2602C18.3811 17.5838 17.8135 16.9057 17.2413 16.2321C17.1686 16.1465 17.139 16.0622 17.1392 15.9494C17.1421 13.7057 17.1421 11.4618 17.1411 9.21816C17.1407 7.62631 16.7205 6.15888 15.8335 4.84749C14.6021 3.02694 12.9089 1.92187 10.7673 1.53837C10.6578 1.51868 10.5476 1.50167 10.4371 1.49146C10.3634 1.48466 10.3322 1.4572 10.3348 1.37845C10.3381 1.28173 10.3369 1.18354 10.326 1.08755C10.2785 0.670746 9.92443 0.363798 9.51024 0.374734C9.10059 0.38567 8.7618 0.719839 8.73818 1.13785C8.73389 1.21465 8.7315 1.29193 8.73675 1.36849C8.74224 1.44869 8.71623 1.4815 8.63344 1.49171C7.08479 1.68127 5.71484 2.29395 4.54601 3.34263C3.01621 4.71528 2.14895 6.44202 1.96214 8.51483C1.93828 8.78046 1.9316 9.04853 1.93136 9.31562C1.92898 11.5148 1.92898 13.714 1.93256 15.9132C1.93256 16.0473 1.89891 16.1484 1.81159 16.2505C1.25378 16.9048 0.701221 17.5641 0.149853 18.2242C0.0944996 18.2905 0.0405788 18.3683 0.0167217 18.4502C-0.0553322 18.6979 0.115496 18.938 0.369825 18.9625C0.417067 18.9671 0.46526 18.9645 0.512978 18.9645C3.51891 18.9645 6.52483 18.9645 9.53052 18.9645V18.9647Z" fill="white"/>
<path d="M13.541 19.9155C13.6665 20.0582 13.4568 20.5858 13.3952 20.7348C13.1557 21.3142 12.6812 21.7772 12.1551 22.0902C10.9531 22.8047 9.41589 22.926 8.08315 22.5758C6.88808 22.2615 5.4728 21.3331 5.50787 19.9097L13.541 19.9158V19.9155Z" fill="white"/>
</svg>
