<svg width="56" height="56" viewBox="0 0 56 56" fill="none" xmlns="http://www.w3.org/2000/svg">
<path d="M55.4001 28.0708C55.4001 43.4708 43.1001 55.8708 28.0001 55.8708C12.8001 55.8708 0.600098 43.3708 0.600098 28.0708C0.600098 12.6708 12.9001 0.270768 28.0001 0.270768C43.1001 0.170768 55.4001 12.6708 55.4001 28.0708Z" fill="#67A8B6"/>
<path d="M53.9999 27.2708C53.9999 41.2708 42.6999 52.5708 28.6999 52.5708C14.6999 52.5708 3.3999 41.2708 3.3999 27.2708C3.3999 13.2708 14.6999 1.97076 28.6999 1.97076C42.6999 1.97076 53.9999 13.2708 53.9999 27.2708Z" fill="#B3DCEC"/>
<path d="M12.5999 41.1708C11.4999 38.6708 10.6999 36.2708 10.1999 33.6708C8.8999 33.3708 7.5999 33.0708 6.3999 32.6708C7.0999 35.7708 8.3999 38.6708 9.9999 41.3708C10.7999 41.2708 11.6999 41.1708 12.5999 41.1708Z" fill="white"/>
<path d="M26.2001 5.67078C17.4001 5.77078 9.2001 11.4708 6.6001 19.8708C6.0001 21.8708 5.7001 24.0708 5.6001 26.1708C7.0001 26.8708 8.3001 27.5708 9.7001 28.3708C9.7001 26.7708 9.9001 25.1708 10.2001 23.4708C10.9001 19.6708 12.2001 16.5708 14.7001 13.5708C17.5001 10.4708 22.3001 6.97078 26.2001 5.67078C26.3001 5.67078 26.2001 5.77078 26.2001 5.67078Z" fill="white"/>
<path opacity="0.4" d="M51.7 27.8708C51.7 38.8708 43.1 47.7708 32.6 47.7708C22 47.7708 13.5 38.8708 13.5 27.8708C13.5 16.8708 22.1 7.97076 32.6 7.97076C43.1 7.97076 51.7 16.8708 51.7 27.8708Z" fill="white"/>
<path opacity="0.5" d="M47.2002 20.2708C47.2002 28.6708 39.8002 35.4708 30.7002 35.4708C21.6002 35.4708 14.2002 28.6708 14.2002 20.2708C14.2002 11.8708 21.6002 5.07078 30.7002 5.07078C39.8002 4.97078 47.2002 11.8708 47.2002 20.2708Z" fill="#B3DCEC"/>
<path d="M45.6003 39.3708C42.4003 42.2708 38.2003 42.8708 36.3003 40.7708C34.4003 38.6708 35.5003 34.5708 38.8003 31.7708C42.0003 28.8708 46.2003 28.2708 48.1003 30.3708C49.9003 32.4708 48.8003 36.4708 45.6003 39.3708Z" fill="white"/>
<path d="M34.2001 41.9708C34.2001 43.5708 32.5001 44.8708 30.4001 44.8708C28.3001 44.8708 26.6001 43.5708 26.6001 41.9708C26.6001 40.3708 28.3001 39.0708 30.4001 39.0708C32.5001 39.0708 34.2001 40.3708 34.2001 41.9708Z" fill="white"/>
</svg>
