<svg width="17" height="19" viewBox="0 0 17 19" fill="none" xmlns="http://www.w3.org/2000/svg">
<path d="M3.37256 18.9603C2.82256 18.9603 2.35156 18.7643 1.95956 18.3723C1.56756 17.9803 1.3719 17.5096 1.37256 16.9603V3.96027C1.08923 3.96027 0.851562 3.86427 0.659562 3.67227C0.467562 3.48027 0.371895 3.24294 0.372562 2.96027C0.372562 2.67694 0.468562 2.43927 0.660562 2.24727C0.852562 2.05527 1.0899 1.9596 1.37256 1.96027H5.37256C5.37256 1.67694 5.46856 1.43927 5.66056 1.24727C5.85256 1.05527 6.0899 0.959603 6.37256 0.96027H10.3726C10.6559 0.96027 10.8936 1.05627 11.0856 1.24827C11.2776 1.44027 11.3732 1.6776 11.3726 1.96027H15.3726C15.6559 1.96027 15.8936 2.05627 16.0856 2.24827C16.2776 2.44027 16.3732 2.6776 16.3726 2.96027C16.3726 3.2436 16.2766 3.48127 16.0846 3.67327C15.8926 3.86527 15.6552 3.96094 15.3726 3.96027V16.9603C15.3726 17.5103 15.1766 17.9813 14.7846 18.3733C14.3926 18.7653 13.9219 18.9609 13.3726 18.9603H3.37256ZM5.37256 13.9603C5.37256 14.2436 5.46856 14.4813 5.66056 14.6733C5.85256 14.8653 6.0899 14.9609 6.37256 14.9603C6.6559 14.9603 6.89356 14.8643 7.08556 14.6723C7.27756 14.4803 7.37323 14.2429 7.37256 13.9603V6.96027C7.37256 6.67694 7.27656 6.43927 7.08456 6.24727C6.89256 6.05527 6.65523 5.9596 6.37256 5.96027C6.08923 5.96027 5.85156 6.05627 5.65956 6.24827C5.46756 6.44027 5.3719 6.6776 5.37256 6.96027V13.9603ZM9.37256 13.9603C9.37256 14.2436 9.46856 14.4813 9.66056 14.6733C9.85256 14.8653 10.0899 14.9609 10.3726 14.9603C10.6559 14.9603 10.8936 14.8643 11.0856 14.6723C11.2776 14.4803 11.3732 14.2429 11.3726 13.9603V6.96027C11.3726 6.67694 11.2766 6.43927 11.0846 6.24727C10.8926 6.05527 10.6552 5.9596 10.3726 5.96027C10.0892 5.96027 9.85156 6.05627 9.65956 6.24827C9.46756 6.44027 9.3719 6.6776 9.37256 6.96027V13.9603Z" fill="black"/>
</svg>
