<svg width="22" height="14" viewBox="0 0 22 14" fill="none" xmlns="http://www.w3.org/2000/svg">
<path d="M21.4347 7.23903C19.82 9.14548 17.9067 10.6648 15.704 11.7777C13.9027 12.6874 12.008 13.1713 9.98266 12.9487C8.452 12.7842 7.01466 12.2713 5.66133 11.5261C3.804 10.51 2.18 9.17451 0.733329 7.60677C0.621329 7.49064 0.527995 7.36484 0.434662 7.23903C0.434662 7.07451 0.434662 6.91968 0.434662 6.75516C2.17066 4.71322 4.224 3.11645 6.632 1.99387C9.88933 0.474514 13.0627 0.745482 16.1707 2.44871C18.056 3.47451 19.708 4.82935 21.1733 6.42613C21.2667 6.53258 21.3507 6.64871 21.4347 6.75516C21.4347 6.91968 21.4347 7.07451 21.4347 7.23903ZM2.516 7.02613C4.16799 8.6229 5.94133 9.95838 8.09733 10.6939C6.89333 9.76484 6.16533 8.56484 6.16533 6.99709C6.156 5.41968 6.912 4.23903 8.20933 3.26161C6.67866 3.61 3.62666 5.65193 2.516 7.02613ZM13.8 3.29064C16.3013 5.16806 16.404 8.72935 13.7907 10.7035C15.928 9.93903 17.72 8.6229 19.3813 6.98742C17.7013 5.36161 15.928 4.05516 13.8 3.29064ZM8.844 3.74548C7.90133 3.74548 7.15466 4.51968 7.15466 5.48742C7.15466 6.44548 7.92933 7.23903 8.85333 7.22935C9.75866 7.21968 10.5053 6.44548 10.5147 5.49709C10.5333 4.51968 9.79599 3.74548 8.844 3.74548Z" fill="white"/>
</svg>
