<svg width="280" height="125" viewBox="0 0 280 125" fill="none" xmlns="http://www.w3.org/2000/svg">
<g clip-path="url(#clip0_34_155)">
<path fill-rule="evenodd" clip-rule="evenodd" d="M179.16 89.3592H100.806C96.0114 89.3592 92.1074 85.4487 92.1074 80.6463V8.71295C92.1074 3.91054 96.0114 0 100.806 0H179.16C183.954 0 187.858 3.91054 187.858 8.71295V80.6806C187.858 85.4487 183.954 89.3592 179.16 89.3592Z" fill="#E6E7E8"/>
<path fill-rule="evenodd" clip-rule="evenodd" d="M177.037 50.837L146.147 29.5691L168.099 19.587C170.53 22.3312 172.619 25.4871 174.229 29.0203C177.448 36.0867 178.27 43.702 177.037 50.837ZM147.414 81.5038L149.948 57.5947L115.634 73.2368C124.264 80.612 136.01 83.8021 147.414 81.5038ZM152.14 80.2346C153.27 79.823 154.435 79.4114 155.565 78.8968C165.77 74.2659 172.893 65.5873 175.941 55.6051L156.181 41.9868L152.14 80.2346ZM112.107 69.8065L134.024 59.8587L103.1 37.6646C102.655 39.9629 102.45 42.2955 102.45 44.6624V44.6968C102.45 49.8765 103.511 55.1592 105.806 60.1674C107.415 63.7692 109.573 67.028 112.107 69.8065ZM127.517 9.09027C126.49 9.46761 125.463 9.84494 124.435 10.3252C114.47 14.8532 107.449 23.2231 104.265 32.9308L123.922 47.0637L127.517 9.09027ZM132.449 7.88967L129.949 31.7645L164.263 16.1224C155.599 8.74724 143.853 5.59137 132.449 7.88967Z" fill="#204184"/>
<path fill-rule="evenodd" clip-rule="evenodd" d="M126.113 23.8062C105.497 37.6646 115.394 69.8065 140.017 69.8065C164.606 69.8065 174.537 37.6989 153.921 23.8062C145.565 18.1806 134.435 18.1806 126.113 23.8062Z" fill="#E6E7E8"/>
<path fill-rule="evenodd" clip-rule="evenodd" d="M130.942 34.3716C126.97 34.1657 132.038 40.0659 132.346 35.778C132.243 34.9547 131.832 34.4059 130.942 34.3716Z" fill="#204184"/>
<path fill-rule="evenodd" clip-rule="evenodd" d="M145.976 25.933C144.743 25.0411 142.586 22.8115 141.01 22.7428C139.503 22.7085 138.716 24.5266 137.517 25.2127C134.709 26.7906 131.935 27.2365 129.538 29.6377C127.483 31.6959 122.141 41.0949 126.559 42.8444C129.367 43.9421 133.716 42.57 136.216 41.3351C137.962 40.4775 139.435 39.1054 141.284 38.4879C143.099 37.8705 144.983 37.8362 146.661 36.7728C145.805 36.0181 145.086 35.4006 144.366 34.7489C145.531 33.4111 147.654 32.9994 148.784 34.646C149.983 36.3954 148.51 38.042 147.448 39.3798C150.496 40.4089 152.517 42.5014 154.263 45.2456C154.537 44.4223 154.743 43.8735 154.846 43.3246C156.421 35.5036 151.935 30.2209 145.976 25.933ZM144.401 32.6564C141.798 34.1657 140.257 37.1501 137.483 38.7623C138.339 35.0919 137.106 32.9308 134.469 30.5296C134.367 30.6325 134.298 30.7011 134.195 30.804C137.243 35.0233 137.004 40.6833 130.771 41.4723C127.654 41.8839 126.422 41.1292 126.901 38.0763C127.278 35.8466 128.1 33.7541 129.469 31.9703C135.052 24.7667 146.592 25.1784 151.489 32.9308C151.695 33.2396 151.832 33.5826 152.14 34.1657C149.811 32.8279 147.14 31.0785 144.401 32.6564Z" fill="#204184"/>
<path fill-rule="evenodd" clip-rule="evenodd" d="M149.983 49.3276C146.01 49.1218 151.079 55.0219 151.387 50.734C151.284 49.9108 150.873 49.3619 149.983 49.3276Z" fill="#204184"/>
<path fill-rule="evenodd" clip-rule="evenodd" d="M134.024 63.4261C135.257 64.318 137.414 66.5477 138.99 66.6163C140.497 66.6506 141.284 64.8326 142.483 64.1465C145.291 62.5686 148.065 62.1226 150.462 59.7214C152.517 57.6633 157.859 48.2642 153.441 46.5148C150.633 45.4171 146.284 46.7892 143.784 48.0241C142.038 48.8817 140.565 50.2538 138.716 50.8713C136.901 51.4887 135.017 51.523 133.339 52.5864C134.195 53.3411 134.915 53.9585 135.634 54.6103C134.469 55.9481 132.346 56.3597 131.216 54.7132C130.017 52.9637 131.49 51.3172 132.552 49.9794C129.504 48.9503 127.483 46.8578 125.737 44.1136C125.463 44.9369 125.257 45.4857 125.155 46.0345C123.545 53.8899 128.065 59.1383 134.024 63.4261ZM135.599 56.7028C138.202 55.1934 139.743 52.2091 142.517 50.5968C141.661 54.2673 142.894 56.4283 145.531 58.8296C145.633 58.7266 145.702 58.658 145.805 58.5551C142.757 54.3359 142.997 48.6759 149.229 47.8869C152.346 47.4753 153.578 48.2299 153.099 51.2829C152.722 53.5126 151.9 55.6051 150.531 57.3888C144.949 64.5925 133.408 64.1808 128.511 56.4283C128.305 56.1196 128.168 55.7766 127.86 55.1934C130.189 56.5656 132.86 58.2807 135.599 56.7028Z" fill="#204184"/>
<path d="M7.21219 121.192C7.21219 122.084 6.90398 122.839 6.25331 123.491C5.63689 124.108 4.84924 124.451 3.89036 124.451H3.82187C2.89723 124.451 2.10958 124.142 1.45891 123.491C0.808242 122.839 0.500031 122.084 0.500031 121.192V102.634C0.500031 101.743 0.808242 100.988 1.45891 100.336C2.07533 99.7187 2.86299 99.3757 3.82187 99.3757H5.49991C6.69851 99.3757 7.62314 99.8559 8.27381 100.816L17.7256 114.572V102.6C17.7256 101.708 18.0338 100.954 18.6845 100.336C19.3352 99.6844 20.1228 99.3414 21.0475 99.3414H21.116C22.0406 99.3414 22.8282 99.6501 23.4789 100.302C24.1296 100.954 24.4378 101.708 24.4378 102.6V119.477C24.4378 120.815 23.9584 121.981 22.9652 122.976C22.0064 123.937 20.8078 124.417 19.4379 124.417H19.3352C17.4517 124.417 16.0476 123.628 15.0887 122.05L7.21219 109.255V121.192Z" fill="#FFFDFD"/>
<path d="M48.7523 120.06C49.129 121.089 48.992 122.05 48.3756 122.976C47.6907 123.902 46.766 124.383 45.6359 124.383H45.5674C44.814 124.383 44.1633 124.177 43.5812 123.731C42.999 123.319 42.6223 122.77 42.4168 122.119L41.3209 118.825H34.1978L33.2047 122.084C32.9992 122.77 32.6225 123.319 32.0404 123.765C31.4582 124.211 30.7733 124.417 30.0541 124.417H29.7459C28.5815 124.417 27.6569 123.937 27.0062 123.01C26.3898 122.119 26.2528 121.158 26.5953 120.129L32.5198 102.875C32.8622 101.845 33.5129 100.988 34.4033 100.336C35.3279 99.6844 36.3553 99.3414 37.5197 99.3414H37.5882C38.7183 99.3414 39.7456 99.6501 40.636 100.302C41.5264 100.919 42.1771 101.777 42.5538 102.772L48.7523 120.06ZM39.4717 113.268L39.6771 113.714C38.7183 110.696 37.9306 107.917 37.3827 105.379H38.0334C37.6224 107.368 36.9032 110.01 35.9101 113.303H39.4717V113.268Z" fill="#FFFDFD"/>
<path d="M57.6562 121.364C57.6562 122.153 57.348 122.839 56.7658 123.456C56.1836 124.04 55.4644 124.348 54.6083 124.348H54.5398C53.6837 124.348 52.9645 124.04 52.3823 123.422C51.8001 122.873 51.4919 122.187 51.4919 121.398V104.453C51.4919 103.046 52.0056 101.846 52.9987 100.816C53.9919 99.8216 55.2247 99.3071 56.6973 99.3071H56.8C57.9644 99.3071 59.026 99.6501 59.9506 100.37C60.8753 101.057 61.4917 101.948 61.7999 103.046L65.4642 115.704L69.06 103.08C69.3682 101.983 69.9846 101.091 70.9435 100.37C71.8339 99.6844 72.8955 99.3414 74.0941 99.3414H74.1968C75.6694 99.3414 76.9023 99.8559 77.8954 100.851C78.9228 101.88 79.4022 103.08 79.4022 104.487V121.432C79.4022 122.221 79.094 122.908 78.5118 123.456C77.9296 124.074 77.2105 124.383 76.3543 124.383H76.2858C75.4297 124.383 74.7105 124.074 74.1284 123.491C73.5462 122.908 73.238 122.221 73.238 121.398V109.289L69.8476 121.055C69.5737 122.016 69.06 122.805 68.2381 123.422C67.4162 124.04 66.4916 124.348 65.4642 124.348H65.3957C64.3683 124.348 63.4437 124.04 62.6218 123.422C61.7999 122.805 61.2862 122.016 61.0122 121.055L57.6219 109.289V121.364H57.6562Z" fill="#FFFDFD"/>
<path d="M96.2854 119.203C97.0388 119.203 97.6552 119.477 98.1689 119.992C98.6826 120.472 98.9223 121.089 98.9223 121.776V121.844C98.9223 122.564 98.6826 123.148 98.1689 123.628C97.6552 124.142 97.0388 124.417 96.2854 124.417H85.7719C84.676 124.417 83.7172 124.04 82.9638 123.251C82.2104 122.496 81.8336 121.604 81.8336 120.541V103.218C81.8336 102.154 82.2104 101.262 82.9638 100.508C83.7514 99.7187 84.676 99.3414 85.7719 99.3414H95.7374C96.5936 99.3414 97.3127 99.6844 97.8606 100.336C98.3743 100.988 98.5113 101.708 98.3743 102.497L98.3401 102.566C98.2031 103.149 97.8949 103.629 97.4155 104.041C96.936 104.418 96.3881 104.59 95.7374 104.59H88.6143V107.437H95.2922C96.0456 107.437 96.662 107.711 97.1757 108.226C97.6894 108.706 97.9291 109.289 97.9291 110.01V110.078C97.9291 110.764 97.6552 111.382 97.1415 111.896C96.6278 112.411 96.0114 112.651 95.258 112.651H88.5801V119.203H96.2854Z" fill="#FFFDFD"/>
<path d="M110.086 102.291C109.915 101.571 110.052 100.919 110.497 100.336C111.011 99.7187 111.662 99.3757 112.449 99.3757H127.483C128.305 99.3757 128.956 99.6844 129.435 100.336C129.915 100.919 130.052 101.571 129.846 102.257V102.291C129.709 102.84 129.435 103.252 128.99 103.595C128.545 103.938 128.031 104.11 127.449 104.11H123.408V121.124C123.408 122.016 123.1 122.805 122.449 123.456C121.764 124.108 120.942 124.451 119.983 124.451H119.915C118.956 124.451 118.134 124.108 117.483 123.456C116.833 122.805 116.49 122.05 116.49 121.124V104.11H112.449C111.901 104.11 111.388 103.938 110.943 103.595C110.497 103.252 110.223 102.84 110.121 102.326L110.086 102.291Z" fill="#FFFDFD"/>
<path d="M138.956 106.614H146.284V102.532C146.284 101.64 146.592 100.851 147.243 100.233C147.894 99.6158 148.681 99.2728 149.64 99.2728H149.709C150.633 99.2728 151.455 99.6158 152.106 100.268C152.757 100.885 153.065 101.64 153.065 102.532V121.055C153.065 121.947 152.757 122.702 152.106 123.319C151.455 123.971 150.668 124.314 149.709 124.314H149.64C148.681 124.314 147.894 124.005 147.243 123.353C146.592 122.702 146.284 121.947 146.284 121.055V112.136H138.956V121.055C138.956 121.947 138.647 122.702 137.997 123.319C137.346 123.971 136.558 124.314 135.599 124.314H135.531C134.572 124.314 133.784 123.971 133.134 123.319C132.483 122.702 132.175 121.947 132.175 121.055V102.532C132.175 101.64 132.483 100.885 133.134 100.268C133.784 99.6158 134.572 99.2728 135.531 99.2728H135.599C136.558 99.2728 137.346 99.6158 137.997 100.268C138.647 100.885 138.956 101.64 138.956 102.532V106.614Z" fill="#FFFDFD"/>
<path d="M177.413 120.06C177.79 121.089 177.653 122.05 177.037 122.976C176.352 123.902 175.427 124.383 174.297 124.383H174.229C173.475 124.383 172.825 124.177 172.242 123.731C171.66 123.319 171.284 122.77 171.078 122.119L169.982 118.825H162.893L161.9 122.084C161.695 122.77 161.318 123.319 160.736 123.765C160.154 124.211 159.469 124.417 158.75 124.417H158.373C157.209 124.417 156.284 123.937 155.633 123.01C155.017 122.119 154.88 121.158 155.222 120.129L161.147 102.875C161.489 101.845 162.14 100.988 163.03 100.336C163.955 99.6844 164.982 99.3414 166.147 99.3414H166.215C167.345 99.3414 168.373 99.6501 169.263 100.302C170.153 100.919 170.804 101.777 171.181 102.772L177.413 120.06ZM168.133 113.268L168.338 113.714C167.38 110.696 166.592 107.917 166.044 105.379H166.695C166.284 107.368 165.564 110.01 164.571 113.303H168.133V113.268Z" fill="#FFFDFD"/>
<path d="M179.366 102.291C179.194 101.571 179.331 100.919 179.776 100.336C180.29 99.7187 180.941 99.3757 181.728 99.3757H196.728C197.55 99.3757 198.201 99.6844 198.68 100.336C199.16 100.919 199.297 101.571 199.091 102.257V102.291C198.954 102.84 198.68 103.252 198.235 103.595C197.79 103.938 197.276 104.11 196.694 104.11H192.653V121.124C192.653 122.016 192.345 122.805 191.694 123.456C191.009 124.108 190.187 124.451 189.228 124.451H189.194C188.235 124.451 187.413 124.108 186.763 123.456C186.112 122.805 185.769 122.05 185.769 121.124V104.11H181.728C181.181 104.11 180.667 103.938 180.222 103.595C179.776 103.252 179.502 102.84 179.4 102.326L179.366 102.291Z" fill="#FFFDFD"/>
<path d="M217.515 121.158C217.515 122.05 217.173 122.839 216.522 123.491C215.906 124.108 215.084 124.451 214.159 124.451H214.091C213.132 124.451 212.344 124.142 211.728 123.491C211.077 122.839 210.735 122.05 210.735 121.158V103.423C210.735 102.326 211.146 101.365 211.933 100.576C212.721 99.7873 213.68 99.41 214.81 99.41H224.604C225.495 99.41 226.179 99.753 226.727 100.405C227.241 101.022 227.378 101.743 227.241 102.532L227.207 102.634C227.07 103.218 226.762 103.698 226.316 104.075C225.803 104.487 225.255 104.693 224.604 104.693H217.481V107.505H224.673C225.426 107.505 226.042 107.746 226.556 108.26C227.07 108.775 227.344 109.392 227.344 110.078V110.113C227.344 110.833 227.104 111.416 226.59 111.896C226.077 112.411 225.46 112.685 224.707 112.685H217.515V121.158Z" fill="#FFFDFD"/>
<path d="M236.59 121.055C236.59 121.947 236.282 122.702 235.631 123.319C234.981 123.971 234.193 124.314 233.234 124.314H233.166C232.207 124.314 231.419 123.971 230.768 123.319C230.118 122.702 229.809 121.947 229.809 121.055V102.532C229.809 101.64 230.118 100.885 230.768 100.268C231.419 99.6158 232.207 99.2728 233.166 99.2728H233.234C234.193 99.2728 234.981 99.6158 235.631 100.268C236.282 100.885 236.59 101.64 236.59 102.532V121.055Z" fill="#FFFDFD"/>
<path d="M249.501 109.255C251.761 110.078 253.439 111.107 254.501 112.342C255.597 113.611 256.144 115.155 256.144 116.973C256.144 119.168 255.357 120.987 253.816 122.427C251.966 124.142 249.295 125 245.802 125C244.501 125 242.823 124.691 240.802 124.108C240.049 123.902 239.501 123.456 239.124 122.839C238.748 122.187 238.645 121.501 238.85 120.815L238.885 120.746C239.09 119.992 239.535 119.409 240.254 118.997C240.974 118.62 241.693 118.517 242.515 118.757C244.056 119.237 245.254 119.477 246.145 119.477C247.206 119.477 248.028 119.271 248.576 118.894C249.124 118.517 249.432 118.002 249.432 117.316C249.432 116.733 249.193 116.218 248.713 115.807C248.131 115.327 247.138 114.846 245.699 114.366C241.008 112.685 238.645 110.147 238.645 106.717C238.645 104.418 239.535 102.532 241.35 101.091C243.131 99.6501 245.494 98.9297 248.405 98.9297C249.467 98.9297 250.836 99.1356 252.583 99.5815C253.371 99.753 253.918 100.199 254.329 100.851C254.706 101.502 254.775 102.154 254.603 102.875L254.569 102.943C254.364 103.629 253.953 104.178 253.302 104.521C252.617 104.898 251.898 105.001 251.145 104.796C250.083 104.487 249.124 104.35 248.336 104.35C247.343 104.35 246.59 104.555 246.042 104.967C245.597 105.31 245.357 105.722 245.357 106.236C245.357 106.819 245.665 107.334 246.247 107.746C246.795 108.123 247.891 108.637 249.501 109.255Z" fill="#FFFDFD"/>
<path d="M265.391 106.614H272.719V102.532C272.719 101.64 273.028 100.851 273.678 100.233C274.329 99.6158 275.117 99.2728 276.075 99.2728H276.144C277.069 99.2728 277.89 99.6158 278.541 100.268C279.192 100.885 279.5 101.64 279.5 102.532V121.055C279.5 121.947 279.192 122.702 278.541 123.319C277.89 123.971 277.103 124.314 276.144 124.314H276.075C275.117 124.314 274.329 124.005 273.678 123.353C273.028 122.702 272.719 121.947 272.719 121.055V112.136H265.391V121.055C265.391 121.947 265.083 122.702 264.432 123.319C263.781 123.971 262.994 124.314 262.035 124.314H261.966C261.007 124.314 260.22 123.971 259.569 123.319C258.918 122.702 258.61 121.947 258.61 121.055V102.532C258.61 101.64 258.918 100.885 259.569 100.268C260.22 99.6158 261.007 99.2728 261.966 99.2728H262.035C262.994 99.2728 263.781 99.6158 264.432 100.268C265.083 100.885 265.391 101.64 265.391 102.532V106.614Z" fill="#FFFDFD"/>
</g>
<defs>
<clipPath id="clip0_34_155">
<rect width="279" height="125" fill="white" transform="translate(0.500031)"/>
</clipPath>
</defs>
</svg>
