<svg width="18" height="18" viewBox="0 0 18 18" fill="none" xmlns="http://www.w3.org/2000/svg">
<path fill-rule="evenodd" clip-rule="evenodd" d="M4.275 5.85819C4.27343 4.74892 4.69214 3.67726 5.45249 2.84444C6.21285 2.01161 7.26256 1.47491 8.4045 1.3351C9.54644 1.1953 10.7021 1.46202 11.6544 2.08518C12.6067 2.70833 13.2902 3.64506 13.5765 4.71946C13.6251 4.88215 13.7377 5.02015 13.8903 5.10414C14.0428 5.18813 14.2233 5.21149 14.3935 5.16926C14.5636 5.12703 14.71 5.02253 14.8014 4.87797C14.8929 4.73342 14.9223 4.56019 14.8833 4.3951C14.5146 3.01448 13.6358 1.81096 12.4117 1.01035C11.1876 0.209746 9.70244 -0.132925 8.23482 0.0466365C6.76721 0.226198 5.41802 0.915651 4.44041 1.98563C3.46281 3.05562 2.92397 4.43259 2.925 5.85819V7.64043C1.9215 7.71241 1.269 7.89454 0.7911 8.35506C-5.36442e-08 9.11653 0 10.3437 0 12.7964C0 15.249 -5.36442e-08 16.4762 0.7911 17.2377C1.5813 18 2.8548 18 5.4 18H12.6C15.1452 18 16.4187 18 17.2089 17.2377C18 16.4762 18 15.249 18 12.7964C18 10.3437 18 9.11653 17.2089 8.35506C16.4187 7.59273 15.1452 7.59273 12.6 7.59273H5.4C4.9932 7.59273 4.6197 7.59273 4.275 7.5962V5.85819ZM5.4 13.6636C5.63869 13.6636 5.86761 13.5723 6.0364 13.4096C6.20518 13.247 6.3 13.0264 6.3 12.7964C6.3 12.5664 6.20518 12.3458 6.0364 12.1831C5.86761 12.0205 5.63869 11.9291 5.4 11.9291C5.1613 11.9291 4.93239 12.0205 4.7636 12.1831C4.59482 12.3458 4.5 12.5664 4.5 12.7964C4.5 13.0264 4.59482 13.247 4.7636 13.4096C4.93239 13.5723 5.1613 13.6636 5.4 13.6636ZM9 13.6636C9.23869 13.6636 9.46761 13.5723 9.6364 13.4096C9.80518 13.247 9.9 13.0264 9.9 12.7964C9.9 12.5664 9.80518 12.3458 9.6364 12.1831C9.46761 12.0205 9.23869 11.9291 9 11.9291C8.7613 11.9291 8.53239 12.0205 8.3636 12.1831C8.19482 12.3458 8.1 12.5664 8.1 12.7964C8.1 13.0264 8.19482 13.247 8.3636 13.4096C8.53239 13.5723 8.7613 13.6636 9 13.6636ZM13.5 12.7964C13.5 13.0264 13.4052 13.247 13.2364 13.4096C13.0676 13.5723 12.8387 13.6636 12.6 13.6636C12.3613 13.6636 12.1324 13.5723 11.9636 13.4096C11.7948 13.247 11.7 13.0264 11.7 12.7964C11.7 12.5664 11.7948 12.3458 11.9636 12.1831C12.1324 12.0205 12.3613 11.9291 12.6 11.9291C12.8387 11.9291 13.0676 12.0205 13.2364 12.1831C13.4052 12.3458 13.5 12.5664 13.5 12.7964Z" fill="white"/>
</svg>
