<svg width="178" height="212" viewBox="0 0 178 212" fill="none" xmlns="http://www.w3.org/2000/svg">
<path d="M88.9865 178.413C138.132 178.413 177.973 138.63 177.973 89.554C177.973 40.4784 138.132 0.694794 88.9865 0.694794C39.8406 0.694794 0 40.4784 0 89.554C0 138.63 39.8406 178.413 88.9865 178.413Z" fill="#26485F"/>
<path d="M88.9865 178.413C138.132 178.413 177.973 138.63 177.973 89.554C177.973 40.4784 138.132 0.694794 88.9865 0.694794C39.8406 0.694794 0 40.4784 0 89.554C0 138.63 39.8406 178.413 88.9865 178.413Z" fill="#262C6E"/>
<path d="M54.709 56.57C53.0019 56.4888 51.4302 55.7041 50.2109 54.6218C48.8289 53.4042 47.9347 51.8348 47.2302 50.2113C46.8237 49.2372 46.4715 48.2631 46.1192 47.262C45.9566 46.8291 45.3334 46.8291 45.1708 47.262C44.6289 48.669 43.9786 50.049 43.2198 51.3478C42.5695 52.4301 41.865 53.5395 40.8082 54.3242C40.754 54.3512 40.7269 54.3783 40.6727 54.4324C39.5347 55.0818 38.1798 55.4065 36.7979 55.3524C36.2559 55.3253 36.1204 56.1371 36.6624 56.2453C40.4018 56.8677 43.545 59.5464 44.6831 62.8746C45.0082 63.8216 45.1708 64.7687 45.1437 65.7698C45.1166 66.311 45.9295 66.338 46.1192 65.878C47.3386 62.8746 48.7205 59.5194 52.0806 58.0041C52.8935 57.6253 53.8148 57.4359 54.7361 57.4629C55.3593 57.49 55.3593 56.5971 54.709 56.57Z" fill="#FFB327"/>
<path d="M148.112 71.8579C146.947 71.8038 145.863 71.2626 145.023 70.5321C144.075 69.6933 143.452 68.6109 142.991 67.5286C142.72 66.8792 142.476 66.2027 142.232 65.5263C142.124 65.2286 141.69 65.2286 141.582 65.5263C141.23 66.5004 140.769 67.4204 140.254 68.3403C139.821 69.098 139.333 69.8285 138.601 70.3968C138.574 70.4238 138.547 70.4509 138.52 70.4509C137.734 70.9109 136.813 71.1273 135.865 71.0732C135.485 71.0462 135.404 71.6144 135.783 71.6685C138.33 72.1014 140.498 73.9414 141.257 76.2143C141.474 76.8637 141.582 77.5131 141.555 78.1895C141.555 78.5683 142.097 78.5954 142.205 78.2707C143.045 76.2143 143.994 73.9143 146.27 72.8861C146.839 72.6426 147.462 72.5073 148.085 72.5073C148.546 72.4802 148.546 71.8579 148.112 71.8579Z" fill="#FFB327"/>
<path d="M37.2028 83.1861C38.2173 78.8958 35.5568 74.5966 31.2604 73.5836C26.9639 72.5705 22.6586 75.2272 21.6441 79.5175C20.6296 83.8078 23.2901 88.107 27.5865 89.1201C31.8829 90.1331 36.1883 87.4764 37.2028 83.1861Z" fill="#DC891A"/>
<path d="M31.488 88.7362C35.5668 87.0491 37.5036 82.3796 35.8141 78.3066C34.1246 74.2337 29.4485 72.2996 25.3697 73.9867C21.2909 75.6738 19.354 80.3433 21.0435 84.4162C22.7331 88.4892 27.4092 90.4233 31.488 88.7362Z" fill="#FFB327"/>
<path d="M28.5599 85.8741V84.7647C27.9096 84.7647 27.2592 84.5482 26.8799 84.2776L27.1509 83.5471C27.5573 83.8176 28.1263 84.0341 28.7496 84.0341C29.5354 84.0341 30.0773 83.5741 30.0773 82.9518C30.0773 82.3565 29.6438 81.9777 28.8309 81.6259C27.6928 81.193 27.0154 80.6789 27.0154 79.7048C27.0154 78.7848 27.6657 78.0813 28.6954 77.9189V76.8096H29.3728V77.8919C30.0231 77.9189 30.4838 78.0813 30.8089 78.2707L30.538 79.0013C30.2941 78.866 29.8605 78.6225 29.156 78.6225C28.316 78.6225 27.9909 79.1366 27.9909 79.5695C27.9909 80.1377 28.3973 80.4354 29.3728 80.8412C30.5109 81.3012 31.0799 81.8694 31.0799 82.8706C31.0799 83.7365 30.4838 84.5482 29.3457 84.7376V85.8741H28.5599Z" fill="white"/>
<path d="M147.771 44.441C148.478 40.0894 145.519 35.9893 141.161 35.283C136.803 34.5768 132.697 37.5319 131.99 41.8835C131.283 46.2351 134.242 50.3352 138.6 51.0414C142.958 51.7477 147.064 48.7925 147.771 44.441Z" fill="#DC891A"/>
<path d="M144.532 48.827C147.654 45.7098 147.654 40.6558 144.532 37.5386C141.41 34.4214 136.349 34.4214 133.227 37.5386C130.106 40.6558 130.106 45.7098 133.227 48.827C136.349 51.9442 141.41 51.9442 144.532 48.827Z" fill="#FFB327"/>
<path d="M139.007 47.722V46.6126C138.357 46.6126 137.706 46.3961 137.3 46.1255L137.571 45.395C137.977 45.6655 138.546 45.882 139.169 45.882C139.955 45.882 140.497 45.422 140.497 44.7997C140.497 44.2044 140.064 43.8256 139.251 43.4738C138.113 43.0409 137.435 42.5268 137.435 41.5527C137.435 40.6327 138.086 39.9292 139.115 39.7669V38.6575H139.793V39.7398C140.47 39.7669 140.904 39.9292 141.229 40.1186L140.958 40.8492C140.714 40.7139 140.28 40.4704 139.549 40.4704C138.709 40.4704 138.384 40.9845 138.384 41.4174C138.384 41.9856 138.79 42.2833 139.766 42.6891C140.904 43.1491 141.473 43.7174 141.473 44.7185C141.473 45.5844 140.877 46.4232 139.711 46.6126V47.7761H139.007V47.722Z" fill="white"/>
<path d="M146.595 29.0518C146.026 30.1341 145.375 31.1623 144.644 32.1635C144.291 32.6776 145.158 33.2188 145.511 32.7047C146.297 31.6494 146.974 30.54 147.57 29.3765C147.868 28.8353 146.866 28.5106 146.595 29.0518Z" fill="#FFDD4D"/>
<path d="M138.14 27.293C138.113 28.4295 138.059 29.5389 138.032 30.6753C138.005 31.2706 139.061 31.3788 139.089 30.7835C139.116 29.6471 139.17 28.5377 139.197 27.4012C139.224 26.806 138.167 26.6977 138.14 27.293Z" fill="#FFDD4D"/>
<path d="M130.445 28.8624C130.932 30.2153 131.529 31.5141 132.26 32.7858C132.585 33.327 133.534 32.9482 133.209 32.407C132.504 31.2165 131.935 29.9718 131.474 28.7C131.285 28.1318 130.228 28.2942 130.445 28.8624Z" fill="#FFDD4D"/>
<path d="M95.3543 166.697V144.726C95.3543 143.454 94.3246 142.426 93.0511 142.426H85.762C84.4884 142.426 83.4587 143.454 83.4587 144.726V155.793H75.438V161.637H83.4587V166.697C77.6058 169.051 73.46 174.787 73.46 181.471C73.46 190.265 80.5865 197.408 89.4201 197.408C98.2537 197.408 105.38 190.292 105.38 181.471C105.353 174.787 101.207 169.051 95.3543 166.697Z" fill="#FFB327"/>
<path d="M121.909 89.3105C121.909 89.3105 125.35 44.2856 91.994 41.0115C58.6647 37.7645 59.2879 69.9097 59.2879 69.9097L65.168 69.6121C65.168 69.6121 62.7834 46.4232 85.8159 44.8267C109.255 43.1762 116.137 62.4958 115.677 89.3375H121.909V89.3105Z" fill="#B7B7B7"/>
<path d="M121.909 91.394H115.677C115.108 91.394 114.593 91.1775 114.186 90.7716C113.807 90.3657 113.59 89.8246 113.59 89.2834C113.726 80.4895 113.048 72.9673 111.558 66.9874C109.959 60.5205 107.385 55.5689 103.862 52.2678C99.4727 48.1008 93.5927 46.342 85.9242 46.8832C79.7732 47.3161 75.0312 49.4537 71.8609 53.2148C66.306 59.817 67.2002 69.3144 67.2002 69.3956C67.2544 69.9638 67.0918 70.5321 66.7125 70.965C66.3331 71.3979 65.8183 71.6685 65.2492 71.6956L59.3692 71.9932C58.8002 72.0203 58.2582 71.8309 57.8518 71.425C57.4453 71.0462 57.2014 70.505 57.2014 69.9368C57.2014 69.3415 57.0117 55.0006 66.9021 45.882C72.999 40.2269 81.5345 37.8998 92.2107 38.9551C106.762 40.3892 116.896 49.6702 121.475 65.8239C124.835 77.7025 124.023 88.9858 123.995 89.4728C123.914 90.5551 123.02 91.394 121.909 91.394ZM117.79 87.254H119.931C120.012 83.6012 119.85 75.2943 117.465 66.8792C114.837 57.6523 110.393 51.0501 104.188 47.1538C105.082 47.8032 105.949 48.5067 106.762 49.2643C114.213 56.2994 117.817 68.7462 117.79 87.254ZM79.2855 43.8527C75.5732 44.8268 72.3757 46.5044 69.7473 48.9396C63.3253 54.8383 61.835 63.7134 61.4827 67.7451L63.0273 67.6639C63.0544 64.011 63.7589 56.4618 68.7176 50.5631C71.4002 47.3432 74.9499 45.0973 79.2855 43.8527Z" fill="#B7B7B7"/>
<path d="M118.332 150.76H59.6404C52.7578 150.76 47.1216 145.132 47.1216 138.259V91.9351C47.1216 85.0623 52.7578 79.4342 59.6404 79.4342H118.332C125.215 79.4342 130.851 85.0623 130.851 91.9351V138.259C130.851 145.132 125.215 150.76 118.332 150.76Z" fill="#4E251C"/>
<path d="M119.985 150.76H64.1926C57.31 150.76 51.6738 145.132 51.6738 138.259V91.9351C51.6738 85.0623 57.31 79.4342 64.1926 79.4342H119.985C126.868 79.4342 132.504 85.0623 132.504 91.9351V138.259C132.504 145.132 126.868 150.76 119.985 150.76Z" fill="#CE4A37"/>
<path d="M92.8613 137.609C103.936 137.609 112.913 128.645 112.913 117.586C112.913 106.528 103.936 97.5632 92.8613 97.5632C81.787 97.5632 72.8096 106.528 72.8096 117.586C72.8096 128.645 81.787 137.609 92.8613 137.609Z" fill="#DC891A"/>
<path d="M90.3955 137.609C101.47 137.609 110.447 128.645 110.447 117.586C110.447 106.528 101.47 97.5632 90.3955 97.5632C79.3212 97.5632 70.3438 106.528 70.3438 117.586C70.3438 128.645 79.3212 137.609 90.3955 137.609Z" fill="#FFB327"/>
<path d="M90.0164 191.131C95.5984 191.131 100.124 186.612 100.124 181.038C100.124 175.464 95.5984 170.945 90.0164 170.945C84.4343 170.945 79.9092 175.464 79.9092 181.038C79.9092 186.612 84.4343 191.131 90.0164 191.131Z" fill="#DC891A"/>
<path d="M88.7698 191.131C94.3518 191.131 98.8769 186.612 98.8769 181.038C98.8769 175.464 94.3518 170.945 88.7698 170.945C83.1877 170.945 78.6626 175.464 78.6626 181.038C78.6626 186.612 83.1877 191.131 88.7698 191.131Z" fill="#F1F1F1"/>
<path d="M88.7698 191.239C83.1336 191.239 78.5542 186.666 78.5542 181.038C78.5542 175.41 83.1336 170.837 88.7698 170.837C94.4059 170.837 98.9853 175.41 98.9853 181.038C99.0124 186.666 94.433 191.239 88.7698 191.239ZM88.7698 171.026C83.242 171.026 78.7439 175.518 78.7439 181.038C78.7439 186.558 83.242 191.049 88.7698 191.049C94.2975 191.049 98.7956 186.558 98.7956 181.038C98.7956 175.518 94.2975 171.026 88.7698 171.026Z" fill="#F1F1F1"/>
<path d="M87.8485 192.294V189.534C86.2497 189.507 84.5968 189.02 83.6484 188.316L84.2988 186.477C85.3014 187.126 86.7104 187.667 88.2549 187.667C90.2059 187.667 91.5336 186.531 91.5336 184.988C91.5336 183.473 90.4498 182.553 88.4175 181.714C85.6265 180.605 83.8923 179.36 83.8923 176.979C83.8923 174.706 85.5181 172.974 88.0381 172.569V169.809H89.7453V172.46C91.3982 172.514 92.5091 172.947 93.3221 173.407L92.6446 175.22C92.0756 174.896 90.9375 174.3 89.1762 174.3C87.0627 174.3 86.2497 175.572 86.2497 176.654C86.2497 178.088 87.2794 178.792 89.664 179.793C92.482 180.957 93.9182 182.364 93.9182 184.826C93.9182 186.991 92.4008 189.02 89.5827 189.48V192.321H87.8485V192.294Z" fill="#FFB327"/>
<path d="M107.06 204.633C104.919 202.955 103.022 200.98 101.451 198.761C100.746 197.76 99.0663 198.707 99.7979 199.735C101.478 202.089 103.429 204.2 105.705 205.986C106.653 206.77 108.035 205.417 107.06 204.633Z" fill="#FFDD4D"/>
<path d="M114.187 195.054C111.883 194.215 109.661 193.214 107.466 192.078C106.383 191.509 105.407 193.16 106.491 193.728C108.821 194.946 111.206 196.001 113.672 196.921C114.837 197.327 115.352 195.46 114.187 195.054Z" fill="#FFDD4D"/>
<path d="M116.192 179.577C113.889 179.685 111.585 179.793 109.282 179.901C108.063 179.956 108.036 181.877 109.282 181.823C111.585 181.714 113.889 181.606 116.192 181.498C117.438 181.444 117.438 179.523 116.192 179.577Z" fill="#FFDD4D"/>
<path d="M74.1372 194.81C71.0482 195.839 68.1759 197.327 65.5746 199.302C64.5991 200.033 65.5475 201.71 66.5501 200.953C69.0159 199.086 71.7256 197.625 74.652 196.65C75.8172 196.272 75.3024 194.432 74.1372 194.81Z" fill="#FFDD4D"/>
<path d="M68.9075 184.177C66.4959 183.825 64.0842 183.635 61.6455 183.635C60.6429 183.635 60.6429 185.205 61.6455 185.205C63.9487 185.205 66.2249 185.34 68.501 185.692C69.4765 185.827 69.9101 184.339 68.9075 184.177Z" fill="#FFDD4D"/>
<path d="M71.5901 172.623C70.6688 171.784 69.5036 171.243 68.4468 170.62C67.2274 169.917 66.0352 169.213 64.8158 168.537C63.7319 167.915 62.7835 169.565 63.8403 170.187C64.9513 170.837 66.0623 171.459 67.1462 172.109C68.1487 172.704 69.3681 173.218 70.2352 174.003C71.1294 174.814 72.4843 173.462 71.5901 172.623Z" fill="#FFDD4D"/>
<path d="M111.585 165.993C108.903 167.076 106.328 168.375 103.89 169.917C102.833 170.566 103.808 172.217 104.865 171.567C107.168 170.133 109.58 168.889 112.1 167.86C113.211 167.373 112.723 165.506 111.585 165.993Z" fill="#FFDD4D"/>
<path d="M95.7876 210.423C95.4354 207.853 95.0831 205.282 94.7038 202.711C94.5141 201.413 92.536 201.954 92.7257 203.253C93.078 205.823 93.4302 208.394 93.8096 210.964C93.9992 212.263 95.9773 211.722 95.7876 210.423Z" fill="#FFDD4D"/>
<path d="M83.296 201.494C82.8083 203.875 82.2934 206.229 81.8057 208.61C81.5347 209.909 83.5128 210.45 83.7838 209.151C84.2715 206.77 84.7864 204.416 85.2741 202.035C85.5451 200.736 83.567 200.195 83.296 201.494Z" fill="#FFDD4D"/>
</svg>
