<svg width="30" height="23" viewBox="0 0 30 23" fill="none" xmlns="http://www.w3.org/2000/svg">
<path d="M13.7043 20.5913C17.3571 20.5913 21.01 20.5913 24.6628 20.5913C26.5436 20.5913 27.3519 19.8129 27.3519 18.0358C27.3519 12.8953 27.3519 7.75479 27.3519 2.6143C27.3519 0.778413 26.5281 -3.16137e-06 24.554 -3.16137e-06C19.2069 -3.16137e-06 13.8752 -3.16137e-06 8.54364 -3.16137e-06C6.49183 -3.16137e-06 4.45556 -0.0146903 2.40375 -3.16137e-06C0.958153 0.029371 0.00996603 0.866536 0.00996603 2.17369C-0.00557801 7.60791 -0.00557801 13.0421 0.0255101 18.4764C0.0255101 18.9023 0.227583 19.387 0.476287 19.7541C0.973697 20.4885 1.81307 20.606 2.668 20.606C6.33639 20.5913 10.0203 20.5913 13.7043 20.5913ZM1.70427 18.0211C1.73535 12.8806 1.73535 7.7401 1.70427 2.59961C1.70427 1.89463 1.95297 1.65964 2.69908 1.65964C10.0048 1.67433 17.3105 1.67433 24.6162 1.65964C25.3623 1.65964 25.611 1.89463 25.611 2.58493C25.5955 7.72541 25.5955 12.8659 25.611 18.0064C25.611 18.6967 25.3778 18.9464 24.6162 18.9317C20.9633 18.9023 17.3105 18.917 13.6576 18.917C10.0048 18.917 6.35193 18.9023 2.69908 18.9317C1.96852 18.9464 1.70427 18.7407 1.70427 18.0211Z" fill="#262C6E"/>
<path d="M29.9788 4.84674C29.9788 3.65709 29.1861 2.92273 27.8804 2.80524C27.8648 2.99617 27.8182 3.20179 27.8648 3.37803C27.9892 4.03895 28.269 4.71456 28.269 5.37548C28.3001 10.3838 28.2845 15.4068 28.2845 20.4151C28.2845 21.2963 28.1913 21.3844 27.2586 21.3844C20.1084 21.3844 12.9737 21.3844 5.8234 21.3844C5.59023 21.3844 5.35707 21.355 5.13946 21.311C4.50215 21.2082 3.86485 21.0907 3.18091 20.9732C3.3208 22.3391 4.16018 23 5.60578 23C10.3933 23 15.1809 23 19.9685 23C22.5021 23 25.0358 23.0147 27.5851 23C29.0151 23 29.9633 22.1922 29.9788 20.9144C29.9944 15.5536 29.9944 10.2075 29.9788 4.84674Z" fill="#262C6E"/>
<path d="M23.699 12.7631C23.7923 11.6175 23.3881 10.8097 22.5021 10.0313C20.9011 8.62131 19.4244 7.07917 17.7612 5.47827C15.2742 7.90164 12.8959 10.1928 10.4244 12.5868C9.66276 11.779 8.97882 11.0594 8.18608 10.2222C6.6783 11.6909 5.2638 13.0568 3.86483 14.4374C3.77157 14.5402 3.66276 14.6871 3.66276 14.8193C3.64722 15.5683 3.64722 16.3174 3.64722 17.1105C10.3467 17.1105 16.9529 17.1105 23.6835 17.1105C23.6835 15.5977 23.6058 14.1877 23.699 12.7631Z" fill="#262C6E"/>
<path d="M6.33648 8.56257C7.82871 8.56257 9.0256 7.41697 9.0256 5.99232C9.0256 4.55299 7.82871 3.45145 6.30539 3.48083C4.81317 3.49552 3.64736 4.59705 3.64736 5.99232C3.63182 7.40229 4.8598 8.56257 6.33648 8.56257Z" fill="#262C6E"/>
</svg>
